<svg xmlns="http://www.w3.org/2000/svg" version="1.1" xmlns:xlink="http://www.w3.org/1999/xlink" xmlns:svgjs="http://svgjs.com/svgjs" width="512" height="512" x="0" y="0" viewBox="0 0 512 512" style="enable-background:new 0 0 512 512" xml:space="preserve" class=""><g><linearGradient id="a" x1="0" x2="512" y1="256" y2="256" gradientUnits="userSpaceOnUse"><stop offset="0" stop-color="#00f1ff"></stop><stop offset=".231" stop-color="#00d8ff"></stop><stop offset=".514" stop-color="#00c0ff"></stop><stop offset=".777" stop-color="#00b2ff"></stop><stop offset="1" stop-color="#00adff"></stop></linearGradient><path fill="url(#a)" d="M512 256c0 141.387-114.613 256-256 256S0 397.387 0 256 114.613 0 256 0s256 114.613 256 256zm0 0" data-original="url(#a)" class=""></path><g fill="#fff"><path d="M252.703 256.34a92.63 92.63 0 0 0 3.297.066 89.74 89.74 0 0 0 3.082-.058c22.871.504 45.367 6.558 65.238 17.617 7.242 4.031 16.375 1.426 20.403-5.813 4.03-7.238 1.425-16.37-5.813-20.398-8.305-4.625-16.988-8.512-25.933-11.672 20.273-16.555 33.238-41.734 33.238-69.887 0-49.742-40.469-90.21-90.211-90.21-49.746 0-90.215 40.468-90.215 90.21 0 28.164 12.977 53.352 33.262 69.907-18.594 6.578-36.047 16.355-51.434 29.011-30.008 24.684-50.875 59.114-58.75 96.95-2.562 12.312.508 24.964 8.43 34.703 7.883 9.695 19.57 15.254 32.07 15.254h101.348c8.285 0 15-6.715 15-15 0-8.286-6.715-15-15-15H129.367c-4.695 0-7.527-2.622-8.797-4.184-1.293-1.59-3.312-4.953-2.336-9.66 13.274-63.75 69.524-110.309 134.47-111.836zm-56.914-90.145c0-33.203 27.012-60.215 60.211-60.215 33.203 0 60.215 27.012 60.215 60.215 0 32.328-25.613 58.778-57.613 60.145-.868-.012-1.735-.043-2.602-.043-.988 0-1.973.016-2.96.031-31.83-1.547-57.25-27.926-57.25-60.133zm0 0" fill="#ffffff" data-original="#ffffff" class=""></path><path d="m413.82 294.754-24.082-23.813c-5.89-5.828-15.386-5.773-21.21.118-5.825 5.89-5.77 15.386.117 21.214l11.433 11.305h-67.351c-29.899 0-54.22 24.324-54.22 54.223 0 29.894 24.18 54.219 53.903 54.219 8.285 0 15-6.715 15-15 0-8.286-6.715-15-15-15-13.18 0-23.902-10.868-23.902-24.22 0-13.355 10.863-24.222 24.219-24.222h68.562l-12.672 12.606c-5.875 5.84-5.902 15.336-.058 21.21a14.938 14.938 0 0 0 10.632 4.422c3.829 0 7.653-1.453 10.579-4.363l24.12-23.984c6.544-6.508 10.141-15.16 10.13-24.367-.012-9.211-3.633-17.856-10.2-24.348zm0 0" fill="#ffffff" data-original="#ffffff" class=""></path></g></g></svg>