<!doctype html>
<svg viewBox="208.688 74.14 211.302 329.799" width="211.302" height="329.799">
    <g fill="#3b86ff" fill-rule="nonzero" stroke="none" stroke-width="1" stroke-linecap="butt" stroke-linejoin="miter"
        stroke-miterlimit="10" stroke-dasharray="" stroke-dashoffset="0" font-family="none" font-weight="none"
        font-size="none" text-anchor="none" style="mix-blend-mode: normal;"
        transform="matrix(3.285834, 0, 0, 3.285834, -213.925464, -479.987434)">
        <g
            data-paper-data="{&quot;isGlobalGroup&quot;:true,&quot;bounds&quot;:{&quot;x&quot;:65,&quot;y&quot;:179.0385652781288,&quot;width&quot;:420,&quot;height&quot;:111.92286944374237}}">
            <g data-paper-data="{&quot;isPrimaryText&quot;:true}" id="element-id-91029"
                transform="matrix(1, 0, 0, 1, 434.110382, -34.648834)">
                <g data-paper-data="{&quot;fillRule&quot;:&quot;evenodd&quot;,&quot;fillRuleOriginal&quot;:&quot;evenodd&quot;,&quot;isIcon&quot;:true,&quot;iconStyle&quot;:&quot;icon-in-text&quot;,&quot;selectedEffects&quot;:{&quot;container&quot;:&quot;&quot;,&quot;transformation&quot;:&quot;rotate0;translate50&quot;,&quot;pattern&quot;:&quot;&quot;},&quot;bounds&quot;:{&quot;x&quot;:131.329,&quot;y&quot;:189.678,&quot;width&quot;:64.30699999999999,&quot;height&quot;:100.37},&quot;iconType&quot;:&quot;icon&quot;,&quot;rawIconId&quot;:&quot;6714&quot;,&quot;combineTerms&quot;:&quot;saucisse&quot;,&quot;isDetailed&quot;:false,&quot;suitableAsStandaloneIcon&quot;:true}"
                    id="element-id-39459" transform="matrix(1, 0, 0, 1, -436.822693, 13.612045)">
                    <path
                        d="M133.284,197.064c0.918,-3.476 2.825,-5.648 5.721,-6.517c2.125,-0.58 4.78,-0.869 7.966,-0.869c8.111,0 16.97,1.617 26.578,4.852c9.607,3.234 15.328,6.734 17.162,10.5c1.449,2.8 2.439,5.866 2.97,9.197c0.531,3.331 1.038,9.487 1.52,18.467c0.29,5.503 0.435,10.428 0.435,14.773c0,13.904 -1.497,24.187 -4.49,30.85c-1.159,2.703 -2.173,4.49 -3.042,5.359c-0.869,0.869 -2.269,1.689 -4.2,2.462c-7.048,2.607 -16.704,3.91 -28.967,3.91c-6.759,0 -11.007,-0.579 -12.745,-1.738c-2.897,-2.027 -5.311,-6.662 -7.242,-13.904c-2.414,-8.69 -3.621,-23.946 -3.621,-45.768c0,-4.055 0.048,-7.048 0.145,-8.98c0.29,-11.586 0.893,-19.118 1.81,-22.594zM191.55562,255.82202c0.01881,-0.49767 -0.3238,-0.71372 -0.76389,-0.48227l-3.38163,1.90402c0.42413,-3.10173 -0.76275,-6.33856 -3.54752,-8.29047c-4.02296,-2.81784 -13.04824,-0.58888 -22.73994,-10.28114c-9.69226,-9.69169 -8.90956,-18.85038 -10.22242,-21.47667c-1.67543,-3.35085 -5.01829,-4.93449 -8.24259,-4.75093l1.88578,-3.35313c0.23202,-0.43952 0.01539,-0.78213 -0.4817,-0.76332l-4.03778,0.15962c-0.4971,0.01881 -0.68579,0.37852 -0.41957,0.79866l2.19133,3.25394c-1.69196,0.26565 -3.30639,1.02156 -4.57307,2.28881c-2.54705,2.54762 -2.85261,6.13733 -2.5995,9.39355c0,0.00114 2.13832,15.33193 13.7346,26.92821c9.37873,9.37873 22.9919,13.46268 27.79813,13.50088c0.26679,0.00211 0.52634,0.00502 0.77922,0.00787c3.41532,0.03871 5.60939,0.0635 7.89433,-2.22143l0.00114,-0.00114c1.25928,-1.26042 2.06307,-2.79788 2.43076,-4.40604l3.33603,2.24777c0.41957,0.26565 0.78042,0.07753 0.79809,-0.41957l0.16019,-4.03721zM174.77971,260.1226c0,0 -13.05337,-1.16807 -23.93479,-11.84769c-10.67848,-10.88199 -11.84711,-23.93479 -11.84711,-23.93479l0.00228,-0.00057c-0.1009,-0.55068 0.05929,-1.13956 0.4857,-1.56597c0.68807,-0.68807 1.80426,-0.68864 2.4929,0c0.32665,0.32722 0.49311,0.74964 0.50907,1.17833l0.00741,-0.00114c0,0 2.22782,12.7005 10.99372,21.68018c8.98025,8.76705 21.67961,10.99429 21.67961,10.99429l-0.00114,0.00684c0.42869,0.01653 0.85168,0.18242 1.17776,0.51021c0.68921,0.68807 0.68807,1.80483 0,2.49176c-0.42527,0.42584 -1.01529,0.58603 -1.5654,0.48627v0.00228z"
                        data-paper-data="{&quot;isPathIcon&quot;:true}" fill="#3b86ff" id="element-id-75418"></path>
                </g>
            </g>
        </g>
    </g>
</svg>