<svg xmlns:mydata="http://www.w3.org/2000/svg" xmlns="http://www.w3.org/2000/svg" xmlns:xlink="http://www.w3.org/1999/xlink" mydata:contrastcolor="11111f" mydata:template="Contrast" mydata:presentation="2.5" mydata:layouttype="undefined" mydata:specialfontid="undefined" mydata:id1="765" mydata:id2="1076" mydata:companyname="Socifun" mydata:companytagline="" version="1.1"  viewBox="0 50 550 370"><g fill="#3b86ff" fill-rule="nonzero" stroke="none" stroke-width="1" stroke-linecap="butt" stroke-linejoin="miter" stroke-miterlimit="10" stroke-dasharray="" stroke-dashoffset="0" font-family="none" font-weight="none" font-size="none" text-anchor="none" style="mix-blend-mode: normal"><g data-paper-data="{&quot;isGlobalGroup&quot;:true,&quot;bounds&quot;:{&quot;x&quot;:65,&quot;y&quot;:179.0385652781288,&quot;width&quot;:420,&quot;height&quot;:111.92286944374237}}"><g data-paper-data="{&quot;isPrimaryText&quot;:true}" id="element-id-91029"><path d="M68.98297,197.11818c-2.65532,5.45546 -3.98297,11.27302 -3.98297,17.45266c0,5.50374 1.01385,10.33159 3.04154,14.48353c2.60704,5.40719 10.47642,11.58683 23.60815,18.53892c3.99897,2.09039 6.69432,4.51431 8.08605,7.27176c1.39173,2.75746 2.06455,5.4229 2.01846,7.99632c-0.05615,3.15336 -0.59799,5.52414 -1.62552,7.11236c-1.02753,1.58821 -2.79174,2.48024 -5.29263,2.67609c-3.86228,0 -6.34862,-0.24139 -7.45902,-0.72417c-1.1104,-0.48278 -1.66561,-1.7863 -1.66561,-3.91055c0,-0.57934 0.09656,-2.12425 0.28967,-4.63473c0.19311,-2.51048 0.28967,-4.15194 0.28967,-4.9244c0,-3.37949 -0.65176,-5.64858 -1.95528,-6.80726c-1.30352,-1.15868 -3.64502,-1.73802 -7.02452,-1.73802c-3.95883,0 -6.75898,0.6759 -8.40045,2.0277c-0.52217,0.43002 -1.09791,1.10923 -1.72723,2.03763c-0.62932,0.92839 -0.78575,5.10005 -0.46929,12.51495c0.24895,3.35905 0.56521,6.80769 0.94876,10.34591c0.38356,3.53822 0.79397,5.58559 1.23124,6.14212c1.06212,1.64147 4.73159,3.38224 11.0084,5.22233c6.27681,1.84008 12.60159,2.76012 18.97434,2.76013c6.95155,-0.14791 13.53775,-3.35231 19.75861,-9.61322c6.22086,-6.26091 9.53662,-10.60871 9.94729,-13.04341c0.38623,-1.93114 0.57934,-4.00711 0.57934,-6.22792c0,-3.39856 -0.54256,-6.56601 -1.62768,-9.50234c-1.08512,-2.93633 -2.66733,-5.55059 -4.74662,-7.84279c-2.45556,-2.7072 -9.51681,-8.39003 -21.18375,-17.04848c-11.66694,-8.65846 -16.70716,-14.9413 -15.12064,-18.84851c0.96301,-1.647 2.19065,-3.01189 3.68294,-4.09469c1.49229,-1.0828 3.19371,-1.76468 5.10427,-2.04564c0.28967,-0.09656 0.77245,-0.14483 1.44835,-0.14483c5.6003,0 9.75224,4.73129 12.45583,14.19386c1.64147,5.31063 2.80015,8.30389 3.47605,8.97979c0.77245,0.96557 2.60703,1.44836 5.50374,1.44836c2.99326,0 5.3589,-0.86901 7.09693,-2.60703c1.3518,-1.44835 2.02769,-3.62088 2.02769,-6.51759c0,-3.18638 -0.19312,-7.86938 -0.57934,-14.04902c-0.48279,-9.26946 -0.87085,-15.43963 -1.16419,-18.5105c-0.29334,-3.07088 -1.5608,-4.95954 -3.80239,-5.66599c-2.11814,-0.35689 -4.02634,-0.53678 -5.72459,-0.53967c-1.69825,-0.00289 -3.37099,0.11691 -5.01823,0.3594c-0.889,0.13082 -1.59177,0.37505 -2.10832,0.73267c-0.51654,0.35762 -0.84679,0.82862 -0.99074,1.41297c0.09167,3.64961 -0.06386,5.62021 -0.46658,5.9118c-0.40272,0.29159 -1.72685,-0.05314 -3.9724,-1.0342c-3.60261,-1.57395 -7.6817,-2.89303 -12.23725,-3.95724c-4.15195,0 -8.01422,0.91729 -11.58683,2.75187c-4.44162,2.31737 -7.99008,6.20378 -10.6454,11.65925z" data-paper-data="{&quot;glyphName&quot;:&quot;s&quot;,&quot;glyphIndex&quot;:0,&quot;firstGlyphOfWord&quot;:true,&quot;word&quot;:1}" fill="#ffffff" id="element-id-64847"/><path d="M210.38279,186.63788c-1.15868,1.25524 -2.48634,6.01067 -3.98297,14.26628c-1.49663,8.25561 -4.17609,25.46688 -8.03836,51.63379c-1.64147,11.49027 -2.4622,18.49064 -2.4622,21.00113c0,1.54491 0.24139,2.94499 0.72417,4.20023c1.06212,2.41392 2.99326,4.00711 5.79341,4.77957c4.2485,1.25524 10.71781,2.70359 19.40793,4.34506c8.69012,1.64147 14.96632,2.60704 18.82859,2.89671c2.89671,0.19312 4.63473,0.28967 5.21407,0.28967c2.22081,0 4.20022,-0.6759 5.93825,-2.02769c1.25524,-0.96557 2.05183,-1.93113 2.38978,-2.8967c0.33795,-0.96557 0.50692,-2.65531 0.50692,-5.06923c0,-3.5726 -0.72418,-9.60741 -2.17253,-18.10441c-1.15868,-6.9521 -2.34151,-11.39371 -3.54847,-13.32485c-1.20696,-1.93114 -3.45191,-2.8967 -6.73484,-2.8967c-5.11752,0 -8.0625,2.80015 -8.83496,8.40045c-0.18104,1.15868 -0.54313,3.47605 -0.72418,4.63473c-2.71566,0 -8.14699,0 -10.86265,0c0.21725,-1.44835 0.57934,-3.86227 0.86901,-5.79341c0.57934,-6.08308 1.01385,-14.38697 1.30352,-24.91167c0.48278,-10.81437 1.06212,-17.2354 1.73802,-19.26309c0.6759,-2.02769 2.80015,-3.04154 6.37275,-3.04154c1.73802,0 2.84843,0.07242 3.33121,0.21725c0.48278,0.14484 0.72417,0.50692 0.72417,1.08626c0,0.09656 -0.09656,0.72418 -0.28967,1.88286c-0.19312,0.96557 -0.28967,1.59319 -0.28967,1.88286c0,1.06213 0.86901,1.93114 2.60704,2.60704c1.06212,0.38623 2.26909,0.57934 3.62088,0.57934c3.95883,0 6.42103,-0.91729 7.3866,-2.75187c1.64147,-3.47605 2.4622,-9.31774 2.4622,-17.52507c0,-4.82784 -0.43451,-8.0625 -1.30352,-9.70396c-1.25524,-2.51048 -5.06924,-3.76572 -11.44199,-3.76572c-1.44835,0 -2.51048,0.04828 -3.18638,0.14484c-14.48353,1.64147 -22.93226,3.71744 -25.34618,6.22792z" data-paper-data="{&quot;glyphName&quot;:&quot;c&quot;,&quot;glyphIndex&quot;:2,&quot;word&quot;:1}" fill="#ffffff" id="element-id-15530"/><path d="M259.99318,220.55308c-0.19312,1.73802 -0.28967,5.84169 -0.28968,12.311c0,3.47605 0,10.42814 0,13.90419c0,2.93292 0,7.82111 0,11.73166c0,11.2006 -0.48279,17.13885 -1.44836,17.81475c-1.15868,0.86901 -1.73802,2.55876 -1.73803,5.06924c0,2.31737 0.57934,4.05539 1.73802,5.21407c1.12075,1.12075 4.43186,1.67759 9.93334,1.67052c0.66018,-0.00085 1.35189,-0.00982 2.07515,-0.0269c6.75042,-0.1595 10.46359,-0.86687 11.13948,-2.12211c2.02769,-5.40718 3.04154,-16.99401 3.04154,-34.76047c0,-0.72418 0,-1.93114 0,-2.8967c-0.09656,-12.26272 -0.36209,-20.15625 -0.7966,-23.68057c-0.43451,-3.52433 -1.47249,-5.76927 -3.11396,-6.73484c-4.23139,-1.2259 -8.80929,-1.83886 -13.73369,-1.83886c-2.80015,0 -4.58645,0.33795 -5.35891,1.01385c-0.77246,0.48279 -1.25524,1.59319 -1.44836,3.33122zM259.44496,187.70392c-1.3518,2.4622 -2.0277,4.85198 -2.0277,7.16935c0,1.73802 0.4345,3.18638 1.30352,4.34506c1.3518,1.64147 3.45191,3.28294 6.30033,4.92441c2.84843,1.64147 5.14165,2.4622 6.87968,2.4622c3.66916,0 6.75898,-1.44835 9.26946,-4.34506c2.60704,-2.99326 3.91055,-6.32447 3.91055,-9.99363c0,-3.66916 -1.40008,-6.56587 -4.20023,-8.69012c-2.51048,-1.73802 -5.84169,-2.60704 -9.99364,-2.60704c-2.51048,0 -4.58645,0.43451 -6.22792,1.30352c-2.12425,1.15868 -3.86228,2.96912 -5.21407,5.43132z" data-paper-data="{&quot;glyphName&quot;:&quot;i&quot;,&quot;glyphIndex&quot;:3,&quot;word&quot;:1}" fill="#ffffff" id="element-id-75488"/><path d="M296.81252,183.81808c-2.41392,1.15868 -3.95883,2.84843 -4.63473,5.06924c-1.25524,4.34506 -2.60704,19.06998 -4.05539,44.17477c-0.09656,1.44835 -0.14484,3.91055 -0.14484,7.3866c0,7.24177 0.37736,16.04555 1.1321,26.41136c0.75473,10.36581 1.51832,16.80395 2.29078,19.31443c0.36209,1.08626 1.08626,3.25879 1.44835,4.34506c1.84665,-0.07242 4.9244,-0.19311 7.3866,-0.28967c4.9244,-0.19311 8.30389,-0.82073 10.13847,-1.88286c1.17092,-0.7611 1.92352,-1.7058 2.25779,-2.8341c0.33427,-1.1283 0.45839,-2.57338 0.37236,-4.33524c-0.24595,-3.79757 -0.73786,-11.39272 -0.98381,-15.19029c-0.18104,-5.22599 -0.54313,-15.67796 -0.72418,-20.90395c1.05006,-0.25346 2.80015,-0.6759 4.20022,-1.01385c3.66916,-0.86901 6.66242,-1.44835 8.97979,-1.73802c3.37949,-0.48278 5.4796,-1.2311 6.30033,-2.24495c0.82073,-1.01385 1.2311,-3.25879 1.2311,-6.73484c-0.12589,-2.70848 -1.1779,-4.30344 -3.15604,-4.78487c-1.97813,-0.48144 -4.35389,-0.6245 -7.12728,-0.42919c-2.57083,0.14484 -7.71248,0.43451 -10.28331,0.57934c0,-2.67945 0,-7.14521 0,-10.71781c0,-7.14521 0.33795,-10.91093 1.01385,-11.29715c0.86901,-0.57934 4.73129,-1.20696 11.58682,-1.88286c6.85554,-0.77245 10.98334,-1.81044 12.38342,-3.11396c1.40007,-1.30352 2.10011,-4.75543 2.10011,-10.35572c0,-5.31063 -0.65176,-8.69012 -1.95528,-10.13847c-1.30352,-1.44835 -4.46576,-2.17253 -9.48672,-2.17253c-0.86901,0 -0.86901,0 -1.30352,0c-5.50374,0.19312 -11.00748,0.72418 -16.51123,1.59319c-5.88997,0.96557 -10.04192,2.0277 -12.45584,3.18638z" data-paper-data="{&quot;glyphName&quot;:&quot;f&quot;,&quot;glyphIndex&quot;:4,&quot;word&quot;:1}" fill="#ffffff" id="element-id-48997"/><path d="M340.6582,197.65718c-1.1104,0.82073 -1.66561,2.34151 -1.66561,4.56231c-0.08084,2.47591 -0.12094,4.7636 -0.12029,6.86306c0.00363,11.70852 1.27452,17.56278 3.81266,17.56278c0.48278,0 0.84487,0.1207 1.08626,0.36209c0.24139,0.24139 0.41036,0.89315 0.50692,1.95528c0.67675,3.72211 1.17671,12.61272 1.49989,26.67182c0.32318,14.05911 1.42007,22.87019 3.29067,26.43324c1.64147,3.28293 4.37959,5.52055 8.21436,6.71284c3.83477,1.19229 7.97297,1.78844 12.41458,1.78845c4.82784,-0.09656 10.13847,-0.67589 15.93188,-1.73802c5.79341,-1.06212 9.99364,-2.22081 12.60067,-3.47605c1.64147,-0.6759 3.37521,-1.62466 5.20124,-2.84628c1.82602,-1.22163 3.22182,-3.0394 4.18739,-5.45332c2.32883,-4.95957 3.49302,-15.31848 3.4926,-31.07671c-0.0001,-3.82607 -0.06886,-7.97044 -0.20628,-12.4331c-0.70338,-22.8428 -1.16265,-34.44349 -1.3778,-34.80208c-0.48279,-1.06212 -1.2311,-1.73802 -2.24495,-2.02769c-1.01385,-0.28967 -3.01741,-0.43451 -6.01067,-0.43451c-0.18104,0 -0.48279,0 -0.72418,0c-4.73129,0 -7.93264,0.30159 -9.60405,0.90477c-1.67141,0.60318 -2.50712,3.31869 -2.50712,8.14653c0,0.21725 0,0.57934 0,0.86901c0,5.50374 -0.12986,14.64059 -0.38959,27.41054c-0.25973,12.76995 -0.77582,21.37574 -1.54827,25.81735c-0.77246,3.37949 -1.7863,5.79341 -3.04154,7.24177c-1.25524,1.44835 -3.08982,2.17253 -5.50374,2.17253c-1.64147,0 -2.92085,-0.28967 -3.83814,-0.86901c-0.91729,-0.57934 -1.76217,-1.64147 -2.53462,-3.18637c-2.60704,-5.11751 -4.34506,-20.18039 -5.21407,-45.18862c-0.38623,-14.38697 -0.96557,-22.06324 -1.73803,-23.02881c-0.57934,-0.77245 -2.36564,-1.15868 -5.35891,-1.15868c-0.57934,0 -4.44162,0.19312 -11.58683,0.57934c-3.57261,0.28967 -5.91411,0.84488 -7.02452,1.66561z" data-paper-data="{&quot;glyphName&quot;:&quot;u&quot;,&quot;glyphIndex&quot;:5,&quot;word&quot;:1}" fill="#ffffff" id="element-id-96717"/><path d="M412.77966,185.66171c-0.25296,1.27245 -0.37999,2.85027 -0.38112,4.73344c-0.00076,1.27242 0.05597,2.68424 0.17018,4.23548c0.88412,12.01356 1.782,22.13599 2.69363,30.36727c0.91163,8.23128 1.7164,19.48052 2.41429,33.74772c0,4.8976 0,14.69281 0,19.59041c0,2.96285 0.38378,4.82023 1.15135,5.57212c0.76757,0.75189 1.39763,1.19934 1.89019,1.34234c2.02769,0.57934 4.87612,0.86901 8.54528,0.86901c5.21407,0 8.25561,-0.43451 9.12462,-1.30352c1.83458,-1.83458 2.80015,-13.80763 2.8967,-35.91915c0.19311,-14.86976 0.48278,-22.01497 0.86901,-21.43562c0.57934,0.57934 3.5726,9.94536 8.97979,28.09805c0.38623,1.25524 0.91729,2.99326 1.59318,5.21407c3.08982,10.23503 5.21407,16.58365 6.37275,19.04585c1.15868,2.4622 2.80015,3.6933 4.9244,3.6933c0.48278,0 2.17253,-0.19311 5.06923,-0.57934c2.22081,-0.28967 3.47605,-0.48278 3.76571,-0.57934c1.83458,-0.48278 3.1381,-2.22081 3.91055,-5.21407c0.86901,-3.18638 2.41392,-16.94573 4.63473,-41.27806c0.88628,-9.52748 2.65883,-28.58243 3.54511,-38.10991c0.03316,-0.35645 0.05006,-0.69947 0.05072,-1.02907c0.00306,-1.53814 -0.34781,-2.78392 -1.0526,-3.73735c-0.85581,-1.15773 -2.57257,-2.41128 -5.15027,-3.76063c-4.15195,-2.02769 -7.23046,-2.67578 -9.23555,-1.94427c-2.00508,0.73151 -3.03024,1.66927 -3.07546,2.81329c-0.86901,3.28293 -1.44835,9.51085 -1.73802,18.68376c-0.6759,16.8009 -1.49663,25.20134 -2.4622,25.20134c-0.07242,-0.07242 -0.19312,-0.19311 -0.28967,-0.28967c-0.6759,-1.44835 -2.65532,-6.85554 -5.93825,-16.22155c-6.85554,-19.79416 -11.39371,-31.13959 -13.61452,-34.0363c-0.86901,-1.15868 -1.76216,-1.907 -2.67946,-2.24495c-0.91729,-0.33795 -2.67946,-0.50692 -5.28649,-0.50692c-0.65176,0 -1.73802,0 -2.60704,0c-6.46931,0.19312 -11.68339,0.57934 -15.64222,1.15868c-1.87523,0.4169 -3.02479,1.69145 -3.44866,3.82367z" data-paper-data="{&quot;glyphName&quot;:&quot;n&quot;,&quot;glyphIndex&quot;:6,&quot;lastGlyphOfWord&quot;:true,&quot;word&quot;:1}" fill="#ffffff" id="element-id-90024"/><g data-paper-data="{&quot;fillRule&quot;:&quot;evenodd&quot;,&quot;fillRuleOriginal&quot;:&quot;evenodd&quot;,&quot;isIcon&quot;:true,&quot;iconStyle&quot;:&quot;icon-in-text&quot;,&quot;selectedEffects&quot;:{&quot;container&quot;:&quot;&quot;,&quot;transformation&quot;:&quot;rotate0;translate50&quot;,&quot;pattern&quot;:&quot;&quot;},&quot;bounds&quot;:{&quot;x&quot;:131.329,&quot;y&quot;:189.678,&quot;width&quot;:64.30699999999999,&quot;height&quot;:100.37},&quot;iconType&quot;:&quot;icon&quot;,&quot;rawIconId&quot;:&quot;6714&quot;,&quot;combineTerms&quot;:&quot;saucisse&quot;,&quot;isDetailed&quot;:false,&quot;suitableAsStandaloneIcon&quot;:true}" id="element-id-39459"><path d="M133.284,197.064c0.918,-3.476 2.825,-5.648 5.721,-6.517c2.125,-0.58 4.78,-0.869 7.966,-0.869c8.111,0 16.97,1.617 26.578,4.852c9.607,3.234 15.328,6.734 17.162,10.5c1.449,2.8 2.439,5.866 2.97,9.197c0.531,3.331 1.038,9.487 1.52,18.467c0.29,5.503 0.435,10.428 0.435,14.773c0,13.904 -1.497,24.187 -4.49,30.85c-1.159,2.703 -2.173,4.49 -3.042,5.359c-0.869,0.869 -2.269,1.689 -4.2,2.462c-7.048,2.607 -16.704,3.91 -28.967,3.91c-6.759,0 -11.007,-0.579 -12.745,-1.738c-2.897,-2.027 -5.311,-6.662 -7.242,-13.904c-2.414,-8.69 -3.621,-23.946 -3.621,-45.768c0,-4.055 0.048,-7.048 0.145,-8.98c0.29,-11.586 0.893,-19.118 1.81,-22.594zM191.55562,255.82202c0.01881,-0.49767 -0.3238,-0.71372 -0.76389,-0.48227l-3.38163,1.90402c0.42413,-3.10173 -0.76275,-6.33856 -3.54752,-8.29047c-4.02296,-2.81784 -13.04824,-0.58888 -22.73994,-10.28114c-9.69226,-9.69169 -8.90956,-18.85038 -10.22242,-21.47667c-1.67543,-3.35085 -5.01829,-4.93449 -8.24259,-4.75093l1.88578,-3.35313c0.23202,-0.43952 0.01539,-0.78213 -0.4817,-0.76332l-4.03778,0.15962c-0.4971,0.01881 -0.68579,0.37852 -0.41957,0.79866l2.19133,3.25394c-1.69196,0.26565 -3.30639,1.02156 -4.57307,2.28881c-2.54705,2.54762 -2.85261,6.13733 -2.5995,9.39355c0,0.00114 2.13832,15.33193 13.7346,26.92821c9.37873,9.37873 22.9919,13.46268 27.79813,13.50088c0.26679,0.00211 0.52634,0.00502 0.77922,0.00787c3.41532,0.03871 5.60939,0.0635 7.89433,-2.22143l0.00114,-0.00114c1.25928,-1.26042 2.06307,-2.79788 2.43076,-4.40604l3.33603,2.24777c0.41957,0.26565 0.78042,0.07753 0.79809,-0.41957l0.16019,-4.03721zM174.77971,260.1226c0,0 -13.05337,-1.16807 -23.93479,-11.84769c-10.67848,-10.88199 -11.84711,-23.93479 -11.84711,-23.93479l0.00228,-0.00057c-0.1009,-0.55068 0.05929,-1.13956 0.4857,-1.56597c0.68807,-0.68807 1.80426,-0.68864 2.4929,0c0.32665,0.32722 0.49311,0.74964 0.50907,1.17833l0.00741,-0.00114c0,0 2.22782,12.7005 10.99372,21.68018c8.98025,8.76705 21.67961,10.99429 21.67961,10.99429l-0.00114,0.00684c0.42869,0.01653 0.85168,0.18242 1.17776,0.51021c0.68921,0.68807 0.68807,1.80483 0,2.49176c-0.42527,0.42584 -1.01529,0.58603 -1.5654,0.48627v0.00228z" data-paper-data="{&quot;isPathIcon&quot;:true}" fill="#3b86ff" id="element-id-75418"/></g></g></g></g><rect data-element-id="element-id-91029" stroke-width="2" fill="transparent" class="invisible-element-box grouping-element" x="65" y="179" width="420" height="112" data-element-name="isPrimaryText"/><rect data-element-id="element-id-90024" stroke-width="2" fill="transparent" class="invisible-element-box individual-element" x="412" y="181" width="73" height="105"/><rect data-element-id="element-id-64847" stroke-width="2" fill="transparent" class="invisible-element-box individual-element" x="65" y="179" width="64" height="112"/><rect data-element-id="element-id-96717" stroke-width="2" fill="transparent" class="invisible-element-box individual-element" x="339" y="195" width="72" height="95"/><rect data-element-id="element-id-15530" stroke-width="2" fill="transparent" class="invisible-element-box individual-element" x="196" y="180" width="59" height="110"/><rect data-element-id="element-id-39459" stroke-width="2" fill="transparent" class="invisible-element-box grouping-element" x="131" y="190" width="64" height="100" data-element-name="isIcon"/><rect data-element-id="element-id-75418" stroke-width="2" fill="transparent" class="invisible-element-box individual-element" x="131" y="190" width="64" height="100"/><rect data-element-id="element-id-48997" stroke-width="2" fill="transparent" class="invisible-element-box individual-element" x="288" y="179" width="51" height="111"/><rect data-element-id="element-id-75488" stroke-width="2" fill="transparent" class="invisible-element-box individual-element" x="257" y="181" width="29" height="107"/></svg>